<svg xmlns="http://www.w3.org/2000/svg" viewBox="0 0 512 512">
  <rect width="512" height="512" fill="#000000"/>
  <path d="M256 48 L460 156 V356 L256 464 L52 356 V156 Z" fill="none" stroke="#FFC600" stroke-width="24"/>
  <g transform="translate(128, 128) scale(1)">
    <path d="M18 2L22 6L23 5C24.1046 3.89543 25.8954 3.89543 27 5L31 9C32.1046 10.1046 32.1046 11.8954 31 13L30 14L34 18L30 22L26 18L13 31L9 27L18 18L2 2Z" fill="#FFC600"/>
    <rect x="70" y="70" width="116" height="116" rx="8" transform="rotate(-45 128 128)" fill="#FFFFFF"/>
    <rect x="110" y="110" width="40" height="40" rx="4" transform="rotate(-45 128 128)" fill="#FFC600"/>
    <path d="M180 180 L220 220 L210 230 L170 190 Z" fill="#FFFFFF"/>
    <rect x="215" y="215" width="10" height="20" fill="#FFC600" transform="rotate(-45 220 220)"/>
  </g>
</svg>